<?xml version="1.0" standalone="no"?>
<!DOCTYPE svg PUBLIC "-//W3C//DTD SVG 20010904//EN"
 "http://www.w3.org/TR/2001/REC-SVG-20010904/DTD/svg10.dtd">
<svg version="1.0" xmlns="http://www.w3.org/2000/svg"
 width="256.000000pt" height="256.000000pt" viewBox="0 0 256.000000 256.000000"
 preserveAspectRatio="xMidYMid meet">

<g transform="translate(0.000000,256.000000) scale(0.100000,-0.100000)"
fill="#000000" stroke="none">
<path d="M0 1280 l0 -1280 1280 0 1280 0 0 1280 0 1280 -1280 0 -1280 0 0
-1280z m1110 375 l5 -40 19 28 c33 49 65 30 46 -27 -7 -22 -8 -41 -2 -53 50
-99 68 -123 97 -123 11 0 29 -7 39 -15 11 -9 24 -11 30 -6 25 19 57 19 69 0
13 -21 37 -26 37 -6 1 6 9 -6 19 -28 11 -22 22 -77 26 -121 l7 -81 -28 -7
c-66 -17 -71 -53 -14 -111 44 -44 48 -54 23 -56 -16 -1 -16 -2 0 -6 14 -4 17
-11 13 -27 -3 -13 -3 -26 1 -30 15 -15 8 -47 -14 -68 -27 -25 -29 -38 -8 -38
8 0 15 -6 15 -13 0 -21 -30 -57 -48 -57 -15 0 -15 -2 -2 -10 13 -9 12 -12 -4
-25 -19 -15 -19 -15 2 -35 26 -24 27 -42 8 -132 -15 -73 -23 -91 -36 -83 -4 3
-14 -2 -21 -11 -9 -11 -22 -13 -50 -9 -44 8 -80 -1 -76 -18 1 -6 -7 -13 -18
-15 -11 -2 -23 -9 -27 -16 -5 -7 -8 -5 -8 6 0 11 -5 15 -15 12 -8 -4 -15 -2
-15 3 0 5 -13 25 -30 43 -16 18 -30 38 -30 43 0 5 -6 4 -13 -2 -8 -6 -12 -23
-9 -41 3 -18 0 -30 -7 -30 -6 0 -11 9 -11 20 0 24 -28 40 -69 40 -17 0 -31 5
-31 11 0 5 -13 15 -29 20 -30 11 -85 72 -100 111 -4 13 -4 37 1 56 9 31 7 38
-20 66 -29 29 -31 37 -38 141 -3 61 -11 115 -16 122 -7 9 -3 24 12 47 12 20
20 44 19 53 -7 48 47 156 75 151 27 -5 55 16 71 52 20 45 27 135 13 163 -11
22 15 57 42 57 9 0 21 5 28 12 16 16 -39 64 -90 80 -55 16 -42 32 33 39 118
11 123 10 129 -36z m427 -31 c1 -5 -1 -15 -6 -23 -7 -10 -13 -11 -27 -2 -11 6
-13 11 -6 11 6 0 12 7 12 16 0 16 21 15 27 -2z m-582 -6 c3 -7 1 -26 -4 -43
-8 -30 -8 -29 -12 13 -4 39 6 58 16 30z m-117 -115 c-15 -15 -58 -6 -58 12 0
6 10 17 23 22 17 9 25 8 35 -5 10 -13 10 -19 0 -29z m437 -3 c4 -6 -5 -10 -19
-10 -14 0 -26 5 -26 10 0 6 9 10 19 10 11 0 23 -4 26 -10z m-447 -231 c-2 -6
-8 -10 -13 -10 -5 0 -11 4 -13 10 -2 6 4 11 13 11 9 0 15 -5 13 -11z"/>
<path d="M1070 1560 c0 -13 5 -20 13 -17 6 2 12 10 12 17 0 7 -6 15 -12 18 -8
2 -13 -5 -13 -18z"/>
<path d="M1008 1493 c7 -3 16 -2 19 1 4 3 -2 6 -13 5 -11 0 -14 -3 -6 -6z"/>
</g>
</svg>
